<mxfile host="app.diagrams.net" modified="2024-04-17T15:40:00.041Z" agent="Mozilla/5.0 (X11; Linux x86_64) AppleWebKit/537.36 (KHTML, like Gecko) Chrome/122.0.0.0 Safari/537.36" etag="Qb2l94Zo0J9XBzIxzC9C" version="24.2.5" type="device">
  <diagram name="PÃ¡gina-1" id="nZxW13EFQnHGF1fHpVlF">
    <mxGraphModel dx="1376" dy="793" grid="1" gridSize="10" guides="1" tooltips="1" connect="1" arrows="1" fold="1" page="1" pageScale="1" pageWidth="827" pageHeight="1169" math="0" shadow="0">
      <root>
        <mxCell id="0" />
        <mxCell id="1" parent="0" />
        <mxCell id="rE5XWo0YIEO_YmUum84V-2" value="" style="rounded=0;whiteSpace=wrap;html=1;fillColor=#FFFFFF;strokeColor=#36393d;" parent="1" vertex="1">
          <mxGeometry x="10" y="50" width="980" height="660" as="geometry" />
        </mxCell>
        <mxCell id="6CXvMUmgUl0GH5pIVxYf-5" value="" style="group;fontSize=16;fillColor=#b1ddf0;strokeColor=none;fontColor=#000000;" parent="1" vertex="1" connectable="0">
          <mxGeometry x="40" y="80" width="215" height="560" as="geometry" />
        </mxCell>
        <mxCell id="6CXvMUmgUl0GH5pIVxYf-3" value="" style="rounded=0;whiteSpace=wrap;html=1;fillColor=#F2F6FC;strokeColor=none;" parent="6CXvMUmgUl0GH5pIVxYf-5" vertex="1">
          <mxGeometry y="30" width="215" height="530" as="geometry" />
        </mxCell>
        <mxCell id="6CXvMUmgUl0GH5pIVxYf-4" value="&lt;font color=&quot;#000000&quot;&gt;Fuentes&lt;/font&gt;" style="text;html=1;align=center;verticalAlign=middle;resizable=0;points=[];autosize=1;strokeColor=none;fillColor=none;fontSize=17;fontStyle=1" parent="6CXvMUmgUl0GH5pIVxYf-5" vertex="1">
          <mxGeometry x="67.50176470588235" width="80" height="30" as="geometry" />
        </mxCell>
        <mxCell id="_HBnlnBu-HId2oQmjhPo-3" value="" style="outlineConnect=0;dashed=0;verticalLabelPosition=bottom;verticalAlign=top;align=center;html=1;shape=mxgraph.aws3.oracle_db_instance;fillColor=#2E73B8;gradientColor=none;" vertex="1" parent="6CXvMUmgUl0GH5pIVxYf-5">
          <mxGeometry x="48" y="106.75" width="60" height="64.5" as="geometry" />
        </mxCell>
        <mxCell id="_HBnlnBu-HId2oQmjhPo-4" value="" style="html=1;verticalLabelPosition=bottom;align=center;labelBackgroundColor=#ffffff;verticalAlign=top;strokeWidth=2;strokeColor=#0080F0;shadow=0;dashed=0;shape=mxgraph.ios7.icons.document;" vertex="1" parent="6CXvMUmgUl0GH5pIVxYf-5">
          <mxGeometry x="67.5" y="240" width="21" height="30" as="geometry" />
        </mxCell>
        <mxCell id="6CXvMUmgUl0GH5pIVxYf-6" value="" style="group;fontSize=16;fillColor=#d5e8d4;strokeColor=none;" parent="1" vertex="1" connectable="0">
          <mxGeometry x="260" y="80" width="215" height="560" as="geometry" />
        </mxCell>
        <mxCell id="6CXvMUmgUl0GH5pIVxYf-7" value="" style="rounded=0;whiteSpace=wrap;html=1;fillColor=#EBF5EB;strokeColor=none;" parent="6CXvMUmgUl0GH5pIVxYf-6" vertex="1">
          <mxGeometry y="30" width="215" height="530" as="geometry" />
        </mxCell>
        <mxCell id="6CXvMUmgUl0GH5pIVxYf-8" value="&lt;font color=&quot;#000000&quot;&gt;Almacenamiento&lt;/font&gt;" style="text;html=1;align=center;verticalAlign=middle;resizable=0;points=[];autosize=1;strokeColor=none;fillColor=#d5e8d4;fontSize=17;fontStyle=1" parent="6CXvMUmgUl0GH5pIVxYf-6" vertex="1">
          <mxGeometry x="32.50176470588235" width="150" height="30" as="geometry" />
        </mxCell>
        <mxCell id="_HBnlnBu-HId2oQmjhPo-1" value="" style="shape=mxgraph.gcp2.doubleRect;strokeColor=#dddddd;shadow=1;strokeWidth=1;rounded=1;absoluteArcSize=1;arcSize=2;" vertex="1" parent="6CXvMUmgUl0GH5pIVxYf-6">
          <mxGeometry x="80" y="230" width="94" height="50" as="geometry" />
        </mxCell>
        <mxCell id="_HBnlnBu-HId2oQmjhPo-2" value="&lt;font color=&quot;#000000&quot;&gt;Name&lt;/font&gt;&lt;br&gt;Cloud Storage" style="editableCssRules=.*;html=1;fontColor=#999999;shape=image;verticalLabelPosition=middle;verticalAlign=middle;labelPosition=right;align=left;spacingLeft=20;part=1;points=[];imageAspect=0;image=data:image/svg+xml,PHN2ZyB4bWxucz0iaHR0cDovL3d3dy53My5vcmcvMjAwMC9zdmciIHhtbG5zOnY9Imh0dHBzOi8vdmVjdGEuaW8vbmFubyIgd2lkdGg9IjIwIiBoZWlnaHQ9IjE2IiB2aWV3Qm94PSIwIDAgMjAgMTYiPiYjeGE7CTxzdHlsZSB0eXBlPSJ0ZXh0L2NzcyI+JiN4YTsJLnN0MHtmaWxsOiM0Mjg1ZjQ7fSYjeGE7CS5zdDF7ZmlsbDojNjY5ZGY2O30mI3hhOwkuc3Qye2ZpbGw6I2FlY2JmYTt9JiN4YTsJLnN0M3tmaWxsOiNmZmY7fSYjeGE7CTwvc3R5bGU+JiN4YTsJPHBhdGggY2xhc3M9InN0MiIgZD0iTTAgMGgyMHY3SDB6Ii8+JiN4YTsJPHBhdGggY2xhc3M9InN0MSIgZD0iTTE4IDBoMnY3aC0yeiIvPiYjeGE7CTxwYXRoIGNsYXNzPSJzdDAiIGQ9Ik0xOCA3bDItN2gtMnoiLz4mI3hhOwk8cGF0aCBjbGFzcz0ic3QxIiBkPSJNMCAwaDJ2N0gweiIvPiYjeGE7CTxnIGNsYXNzPSJzdDMiPiYjeGE7CQk8cGF0aCBkPSJNNCAzaDZ2MUg0eiIvPiYjeGE7CQk8cmVjdCB4PSIxMyIgeT0iMiIgd2lkdGg9IjMiIGhlaWdodD0iMyIgcng9IjEuNSIvPiYjeGE7CTwvZz4mI3hhOwk8cGF0aCBjbGFzcz0ic3QyIiBkPSJNMCA5aDIwdjdIMHoiLz4mI3hhOwk8cGF0aCBjbGFzcz0ic3QxIiBkPSJNMTggOWgydjdoLTJ6Ii8+JiN4YTsJPHBhdGggY2xhc3M9InN0MCIgZD0iTTE4IDE2bDItN2gtMnoiLz4mI3hhOwk8cGF0aCBjbGFzcz0ic3QxIiBkPSJNMCA5aDJ2N0gweiIvPiYjeGE7CTxnIGNsYXNzPSJzdDMiPiYjeGE7CQk8cGF0aCBkPSJNNCAxMmg2djFINHoiLz4mI3hhOwkJPHJlY3QgeD0iMTMiIHk9IjExIiB3aWR0aD0iMyIgaGVpZ2h0PSIzIiByeD0iMS41Ii8+JiN4YTsJPC9nPiYjeGE7PC9zdmc+;" vertex="1" parent="_HBnlnBu-HId2oQmjhPo-1">
          <mxGeometry width="30" height="24" relative="1" as="geometry">
            <mxPoint x="15" y="18" as="offset" />
          </mxGeometry>
        </mxCell>
        <mxCell id="_HBnlnBu-HId2oQmjhPo-7" value="Cloud&#xa;Spanner" style="sketch=0;html=1;verticalAlign=top;labelPosition=center;verticalLabelPosition=bottom;align=center;spacingTop=-6;fontSize=11;fontStyle=1;fontColor=#999999;shape=image;aspect=fixed;imageAspect=0;image=data:image/svg+xml,PHN2ZyB4bWxucz0iaHR0cDovL3d3dy53My5vcmcvMjAwMC9zdmciIHhtbG5zOnY9Imh0dHBzOi8vdmVjdGEuaW8vbmFubyIgd2lkdGg9IjIwIiBoZWlnaHQ9IjE4LjQ1OTk5OTA4NDQ3MjY1NiIgZmlsbC1ydWxlPSJldmVub2RkIiB2aWV3Qm94PSIwIDAgMjAgMTguNDU5OTk5MDg0NDcyNjU2Ij4mI3hhOwk8c3R5bGUgdHlwZT0idGV4dC9jc3MiPiYjeGE7CQkuc3Qwe2ZpbGw6IzQyODVmNDt9JiN4YTsJCS5zdDF7ZmlsbDojNjY5ZGY2O30mI3hhOwkJLnN0MntmaWxsOiNhZWNiZmE7fSYjeGE7CTwvc3R5bGU+JiN4YTsJPHBhdGggY2xhc3M9InN0MSIgZD0iTTguNjYgNS42M3Y0LjM2bC0zLjc3IDIuMTggMS4zNCAyLjMyTDEwIDEyLjMxbDMuNzcgMi4xOCAxLjM0LTIuMzItMy43Ny0yLjE4VjUuNjN6Ii8+JiN4YTsJPHBhdGggY2xhc3M9InN0MCIgZD0iTTEwIDUuNjN2NS4xMmwtNC40NCAyLjU4LjY3IDEuMTZMMTAgMTIuMzFsMy43NyAyLjE4IDEuMzQtMi4zMi0zLjc3LTIuMThWNS42M3oiLz4mI3hhOwk8cGF0aCBjbGFzcz0ic3QyIiBkPSJNNi42MiA0Ljk1TDEwIDYuNzhWMy42N2wtMS4zNS0uNjJWMEw2LjYyIDEuMjJ6Ii8+JiN4YTsJPHBhdGggY2xhc3M9InN0MSIgZD0iTTEwIDYuNzhsMy4zOC0xLjgzVjEuMjJMMTEuMzUgMHYzLjA1TDEwIDMuNjd6bTYuMTQgNy41M2wtLjA4IDEuMzkgMi43IDEuNTMtMi4xOCAxLjItMy4yNC0xLjg3LjExLTMuODMgMy4yNy0yTDIwIDEyLjYxdjIuNDlsLTIuNjktMS41NXptLTEyLjI4IDBsLTEuMTctLjc2TDAgMTUuMXYtMi40OWwzLjIzLTEuODcgMy4yNyAyIC4xMSAzLjgzLTMuMTkgMS44OS0yLjE4LTEuMjMgMi43LTEuNTZ6Ii8+JiN4YTsJPHBhdGggY2xhc3M9InN0MiIgZD0iTTE2LjcyIDEwLjc1bC0zLjI3IDIuMDEgMi42OSAxLjU1IDEuMTYtLjc2TDIwIDE1LjFsLS4wNS0yLjQ5ek0zLjg2IDE0LjMxbDIuNjktMS41NS0zLjI3LTIuMDEtMy4yMyAxLjg2TDAgMTUuMWwyLjctMS41NXoiLz4mI3hhOzwvc3ZnPg==;" vertex="1" parent="6CXvMUmgUl0GH5pIVxYf-6">
          <mxGeometry x="120" y="120" width="42" height="38" as="geometry" />
        </mxCell>
        <mxCell id="6CXvMUmgUl0GH5pIVxYf-9" value="" style="group;fontSize=16;fillColor=#fff2cc;strokeColor=none;" parent="1" vertex="1" connectable="0">
          <mxGeometry x="500" y="80" width="215" height="560" as="geometry" />
        </mxCell>
        <mxCell id="6CXvMUmgUl0GH5pIVxYf-10" value="" style="rounded=0;whiteSpace=wrap;html=1;fillColor=#FFFEF7;strokeColor=none;" parent="6CXvMUmgUl0GH5pIVxYf-9" vertex="1">
          <mxGeometry y="30" width="215" height="530" as="geometry" />
        </mxCell>
        <mxCell id="6CXvMUmgUl0GH5pIVxYf-11" value="&lt;font color=&quot;#000000&quot;&gt;Procesamiento&lt;/font&gt;" style="text;html=1;align=center;verticalAlign=middle;resizable=0;points=[];autosize=1;strokeColor=none;fillColor=#fff2cc;fontSize=17;fontStyle=1" parent="6CXvMUmgUl0GH5pIVxYf-9" vertex="1">
          <mxGeometry x="37.50176470588235" width="140" height="30" as="geometry" />
        </mxCell>
        <mxCell id="_HBnlnBu-HId2oQmjhPo-9" value="Cloud&#xa;Spanner" style="sketch=0;html=1;verticalAlign=top;labelPosition=center;verticalLabelPosition=bottom;align=center;spacingTop=-6;fontSize=11;fontStyle=1;fontColor=#999999;shape=image;aspect=fixed;imageAspect=0;image=data:image/svg+xml,PHN2ZyB4bWxucz0iaHR0cDovL3d3dy53My5vcmcvMjAwMC9zdmciIHhtbG5zOnY9Imh0dHBzOi8vdmVjdGEuaW8vbmFubyIgd2lkdGg9IjIwIiBoZWlnaHQ9IjE4LjQ1OTk5OTA4NDQ3MjY1NiIgZmlsbC1ydWxlPSJldmVub2RkIiB2aWV3Qm94PSIwIDAgMjAgMTguNDU5OTk5MDg0NDcyNjU2Ij4mI3hhOwk8c3R5bGUgdHlwZT0idGV4dC9jc3MiPiYjeGE7CQkuc3Qwe2ZpbGw6IzQyODVmNDt9JiN4YTsJCS5zdDF7ZmlsbDojNjY5ZGY2O30mI3hhOwkJLnN0MntmaWxsOiNhZWNiZmE7fSYjeGE7CTwvc3R5bGU+JiN4YTsJPHBhdGggY2xhc3M9InN0MSIgZD0iTTguNjYgNS42M3Y0LjM2bC0zLjc3IDIuMTggMS4zNCAyLjMyTDEwIDEyLjMxbDMuNzcgMi4xOCAxLjM0LTIuMzItMy43Ny0yLjE4VjUuNjN6Ii8+JiN4YTsJPHBhdGggY2xhc3M9InN0MCIgZD0iTTEwIDUuNjN2NS4xMmwtNC40NCAyLjU4LjY3IDEuMTZMMTAgMTIuMzFsMy43NyAyLjE4IDEuMzQtMi4zMi0zLjc3LTIuMThWNS42M3oiLz4mI3hhOwk8cGF0aCBjbGFzcz0ic3QyIiBkPSJNNi42MiA0Ljk1TDEwIDYuNzhWMy42N2wtMS4zNS0uNjJWMEw2LjYyIDEuMjJ6Ii8+JiN4YTsJPHBhdGggY2xhc3M9InN0MSIgZD0iTTEwIDYuNzhsMy4zOC0xLjgzVjEuMjJMMTEuMzUgMHYzLjA1TDEwIDMuNjd6bTYuMTQgNy41M2wtLjA4IDEuMzkgMi43IDEuNTMtMi4xOCAxLjItMy4yNC0xLjg3LjExLTMuODMgMy4yNy0yTDIwIDEyLjYxdjIuNDlsLTIuNjktMS41NXptLTEyLjI4IDBsLTEuMTctLjc2TDAgMTUuMXYtMi40OWwzLjIzLTEuODcgMy4yNyAyIC4xMSAzLjgzLTMuMTkgMS44OS0yLjE4LTEuMjMgMi43LTEuNTZ6Ii8+JiN4YTsJPHBhdGggY2xhc3M9InN0MiIgZD0iTTE2LjcyIDEwLjc1bC0zLjI3IDIuMDEgMi42OSAxLjU1IDEuMTYtLjc2TDIwIDE1LjFsLS4wNS0yLjQ5ek0zLjg2IDE0LjMxbDIuNjktMS41NS0zLjI3LTIuMDEtMy4yMyAxLjg2TDAgMTUuMWwyLjctMS41NXoiLz4mI3hhOzwvc3ZnPg==;" vertex="1" parent="6CXvMUmgUl0GH5pIVxYf-9">
          <mxGeometry x="92.03" y="120" width="30.95" height="28" as="geometry" />
        </mxCell>
        <mxCell id="_HBnlnBu-HId2oQmjhPo-13" style="edgeStyle=orthogonalEdgeStyle;rounded=0;orthogonalLoop=1;jettySize=auto;html=1;" edge="1" parent="6CXvMUmgUl0GH5pIVxYf-9" source="_HBnlnBu-HId2oQmjhPo-10" target="_HBnlnBu-HId2oQmjhPo-9">
          <mxGeometry relative="1" as="geometry" />
        </mxCell>
        <mxCell id="_HBnlnBu-HId2oQmjhPo-10" value="" style="editableCssRules=.*;html=1;shape=image;verticalLabelPosition=bottom;labelBackgroundColor=#ffffff;verticalAlign=top;aspect=fixed;imageAspect=0;image=data:image/svg+xml,PHN2ZyB4bWxucz0iaHR0cDovL3d3dy53My5vcmcvMjAwMC9zdmciIHhtbG5zOnY9Imh0dHBzOi8vdmVjdGEuaW8vbmFubyIgd2lkdGg9IjE1Ljk2NTYwODU5NjgwMTc1OCIgaGVpZ2h0PSIxNC43ODkzMTUyMjM2OTM4NDgiIHZpZXdCb3g9IjAuMDQxMjc5MTMzNDA5MjYxNzAzIDAuMDAwMTYyNjU3NDY2NzE3MDY0MzggMTUuOTY1NjA4NTk2ODAxNzU4IDE0Ljc4OTMxNTIyMzY5Mzg0OCI+JiN4YTsJPHN0eWxlIHR5cGU9InRleHQvY3NzIj4mI3hhOwkuc3Qwe2ZpbGw6IzQyODVmNDt9JiN4YTsJPC9zdHlsZT4mI3hhOwk8cGF0aCBjbGFzcz0ic3QwIiBkPSJNMTUuNTgxIDkuODMyYTMuMTIgMy4xMiAwIDAgMC0xLjE0LTEuMTNoLS4xMmwtNS0yLjg4YTMuMTIgMy4xMiAwIDEgMC00LjY4LTIuNjZoMHY1LjhhMy4wOSAzLjA5IDAgMCAwLTMuMDYgMGgwYTMuMTMxIDMuMTMxIDAgMCAwIDMuMSA1LjQ0aDAgMGw1LjA4LTIuOTRhMy4wOSAzLjA5IDAgMCAwIC40MSAxLjUyIDMuMTMgMy4xMyAwIDEgMCA1LjQxLTMuMTV6bS05LjQgMS4zMnYtNS4zNmEzLjExIDMuMTEgMCAwIDAgLjUzLjI1bDQuNjEgMi42N2gwYTMuMTMgMy4xMyAwIDAgMC0uNTEuMzhsLTQuNTggMi42MmEzLjA4IDMuMDggMCAwIDAtLjA1LS41NnptLjgyLTkuMzZhMS41MiAxLjUyIDAgMSAxLS43NyAxLjMyIDEuNTIgMS41MiAwIDAgMSAuNzctMS4zMnptLTMuMSAxMS4yMWExLjUyIDEuNTIgMCAxIDEgLjU3LTIuMDcgMS41MiAxLjUyIDAgMCAxLS41NyAyLjA3em05Ljc2LS4zM2ExLjUyIDEuNTIgMCAwIDEtMi4wOS0uNWgwYTEuNTIxIDEuNTIxIDAgMSAxIDIuNjMtMS41M2wuMDcuMTJhMS41MiAxLjUyIDAgMCAxLS42MiAxLjkxeiIvPiYjeGE7PC9zdmc+;" vertex="1" parent="6CXvMUmgUl0GH5pIVxYf-9">
          <mxGeometry x="92.03000000000004" y="240" width="32" height="30" as="geometry" />
        </mxCell>
        <mxCell id="6CXvMUmgUl0GH5pIVxYf-12" value="" style="group;fontSize=16;fillColor=#f8cecc;strokeColor=none;" parent="1" vertex="1" connectable="0">
          <mxGeometry x="746" y="80" width="215" height="560" as="geometry" />
        </mxCell>
        <mxCell id="6CXvMUmgUl0GH5pIVxYf-13" value="" style="rounded=0;whiteSpace=wrap;html=1;fillColor=#F8EAE9;strokeColor=none;" parent="6CXvMUmgUl0GH5pIVxYf-12" vertex="1">
          <mxGeometry y="30" width="215" height="530" as="geometry" />
        </mxCell>
        <mxCell id="6CXvMUmgUl0GH5pIVxYf-14" value="&lt;font color=&quot;#000000&quot;&gt;AnÃ¡lisis&lt;/font&gt;" style="text;html=1;align=center;verticalAlign=middle;resizable=0;points=[];autosize=1;strokeColor=none;fillColor=#f8cecc;fontSize=17;fontStyle=1" parent="6CXvMUmgUl0GH5pIVxYf-12" vertex="1">
          <mxGeometry x="67.50176470588235" width="80" height="30" as="geometry" />
        </mxCell>
        <mxCell id="_HBnlnBu-HId2oQmjhPo-18" style="edgeStyle=orthogonalEdgeStyle;rounded=0;orthogonalLoop=1;jettySize=auto;html=1;entryX=0.75;entryY=0;entryDx=0;entryDy=0;" edge="1" parent="6CXvMUmgUl0GH5pIVxYf-12" source="_HBnlnBu-HId2oQmjhPo-15" target="_HBnlnBu-HId2oQmjhPo-17">
          <mxGeometry relative="1" as="geometry" />
        </mxCell>
        <mxCell id="_HBnlnBu-HId2oQmjhPo-15" value="" style="editableCssRules=.*;html=1;shape=image;verticalLabelPosition=bottom;labelBackgroundColor=#ffffff;verticalAlign=top;aspect=fixed;imageAspect=0;image=data:image/svg+xml,PHN2ZyB4bWxucz0iaHR0cDovL3d3dy53My5vcmcvMjAwMC9zdmciIHhtbG5zOnY9Imh0dHBzOi8vdmVjdGEuaW8vbmFubyIgd2lkdGg9IjE0LjY1OTk5OTg0NzQxMjExIiBoZWlnaHQ9IjIwIiB2aWV3Qm94PSIwIDAgMTQuNjU5OTk5ODQ3NDEyMTEgMjAiPiYjeGE7CTxzdHlsZSB0eXBlPSJ0ZXh0L2NzcyI+JiN4YTsJLnN0MHtmaWxsOiM0Mjg1ZjQ7fSYjeGE7CS5zdDF7ZmlsbDojNjY5ZGY2O30mI3hhOwkuc3Qye2ZpbGw6I2FlY2JmYTt9JiN4YTsJPC9zdHlsZT4mI3hhOwk8c3R5bGU+JiN4YTsJCS5Ee2ZpbGwtcnVsZTpldmVub2RkfSYjeGE7CTwvc3R5bGU+JiN4YTsJPHBhdGggZD0iTTcuMzMgMTUuMzV2LTMuMDFMMCA4LjQ0djMuMDF6bTAgNC42NXYtMy4wMUwwIDEzLjA5djMuMDF6IiBjbGFzcz0ic3QyIEQiLz4mI3hhOwk8cGF0aCBkPSJNMTQuNjYgOC40NGwtNy4zMyAzLjl2My4wMWw3LjMzLTMuOXptMCA0LjY1bC03LjMzIDMuOVYyMGw3LjMzLTMuOXoiIGNsYXNzPSJzdDEgRCIvPiYjeGE7CTxwYXRoIGQ9Ik03LjMzIDB2My4wMWw3LjMzIDMuOVYzLjl6IiBjbGFzcz0ic3QwIEQiLz4mI3hhOwk8cGF0aCBkPSJNMCA2LjkxbDcuMzMtMy45VjBMMCAzLjl6IiBjbGFzcz0iRCBzdDEiLz4mI3hhOwk8cGF0aCBkPSJNNy4zMyAxMC43OVY3Ljc3TDAgMy44N3YzLjAyeiIgY2xhc3M9IkQgc3QyIi8+JiN4YTsJPHBhdGggZD0iTTE0LjY2IDMuODdsLTcuMzMgMy45djMuMDJsNy4zMy0zLjl6IiBjbGFzcz0iRCBzdDEiLz4mI3hhOzwvc3ZnPg==;" vertex="1" parent="6CXvMUmgUl0GH5pIVxYf-12">
          <mxGeometry x="92.5" y="120" width="30" height="40" as="geometry" />
        </mxCell>
        <mxCell id="_HBnlnBu-HId2oQmjhPo-17" value="Looker" style="sketch=0;html=1;verticalAlign=top;labelPosition=center;verticalLabelPosition=bottom;align=center;spacingTop=-6;fontSize=11;fontStyle=1;fontColor=#999999;shape=image;aspect=fixed;imageAspect=0;image=data:image/svg+xml,PHN2ZyB4bWxucz0iaHR0cDovL3d3dy53My5vcmcvMjAwMC9zdmciIGlkPSJzdmc4OTgwMSIgdmVyc2lvbj0iMS4xIiB2aWV3Qm94PSIwIDAgMjA4LjA1NjU1IDMzNC42MTMxNiIgaGVpZ2h0PSIzMzQuNjEzMTZtbSIgd2lkdGg9IjIwOC4wNTY1NW1tIj4mI3hhOyAgJiN4YTsgIDxkZWZzIGlkPSJkZWZzODk3OTgiLz4mI3hhOyAgPGcgdHJhbnNmb3JtPSJ0cmFuc2xhdGUoLTQuMjQ2MjUyNCwxNS42NzE5MTEpIiBpZD0ibGF5ZXIxIj4mI3hhOyAgICA8cGF0aCBpZD0icGF0aDkxODAyIiB0cmFuc2Zvcm09InNjYWxlKDAuMjY0NTgzMzMpIiBkPSJtIDQwOS4yMjI2Niw0MTkuMDk5NjEgYyAtMzYuNjA4MTEsMCAtNzIuMDc2NjcsNS4wNzUzIC0xMDUuNzUzOTEsMTQuNTMxMjUgbCA0OS4wMzUxNiwxMjAuMDQxMDIgYyAxOC4yNjE3MiwtMy45Mzg5OSAzNy4yMjE5NiwtNi4wNjgzNiA1Ni43MTg3NSwtNi4wNjgzNiAxNDYuOTM1MTQsMCAyNjQuNjc3NzMsMTE3LjczNDc3IDI2NC42Nzc3MywyNjQuNjY5OTIgMCwxNDYuOTM1MTQgLTExNy43NDI1OSwyNjQuNjY5OTYgLTI2NC42Nzc3MywyNjQuNjY5OTYgLTE0Ni45MzUxNiwwIC0yNjQuNjY5OTEsLTExNy43MzQ4MiAtMjY0LjY2OTkzLC0yNjQuNjY5OTYgMCwtOTkuMTg3NjMgNTMuNjg5ODMsLTE4NS4wMDU5NiAxMzMuNzU1ODYsLTIzMC4zNDc2NiBMIDIyOS42MjY5NSw0NjIuNzUgQyAxMDMuMDI0Nyw1MjguMjI0NzQgMTYuMDQ4ODI3LDY2MC41MDUyMyAxNi4wNDg4MjgsODEyLjI3MzQ0IGMgMi4zZS01LDIxNi4zODM3NiAxNzYuNzkwMDYyLDM5My4xNzM4NiAzOTMuMTczODMyLDM5My4xNzM4NiAyMTYuMzgzNzMsMCAzOTMuMTgxNjQsLTE3Ni43OTAxIDM5My4xODE2NCwtMzkzLjE3Mzg2IDNlLTUsLTIxNi4zODM3OCAtMTc2Ljc5Nzg3LC0zOTMuMTczODMgLTM5My4xODE2NCwtMzkzLjE3MzgzIHoiIHN0eWxlPSJjb2xvcjojMDAwMDAwO29wYWNpdHk6MTtmaWxsOiM1OTg2ZjI7ZmlsbC1vcGFjaXR5OjE7c3Ryb2tlLXdpZHRoOjMuNzc5NTM7c3Ryb2tlLWxpbmVqb2luOnJvdW5kOy1pbmtzY2FwZS1zdHJva2U6bm9uZSIvPiYjeGE7ICAgIDxwYXRoIGQ9Im0gMTg5Ljk0MzM2LDg2LjI1IGMgLTk1LjEzMDMzMSwwIC0xNzMuMTc5Njg4LDc4LjA1NTIyIC0xNzMuMTc5Njg4LDE3My4xODU1NSAtNmUtNiw5NS4xMzAzMyA3OC4wNDkzNTMsMTczLjE3OTY4IDE3My4xNzk2ODgsMTczLjE3OTY4IDkuMDE2MTgsMCAxNy44NzU4LC0wLjcwODMyIDI2LjUzMzIsLTIuMDU4NTkgbCAtMzQuODI4MTIsLTg1LjI2NTYyIGMgLTQ0LjE1NzMsLTQuMDg2NjkgLTc3Ljk1NTA4LC00MC41MDcwNSAtNzcuOTU1MDgsLTg1Ljg1NTQ3IDAsLTQ4LjE1MDM5IDM4LjA5OTYyLC04Ni4yNTU4NiA4Ni4yNSwtODYuMjU1ODYgMTMuMTU5NzcsMCAyNS41NTg4OCwyLjg2MjQ2IDM2LjY0NDUzLDcuOTgyNDIgbCA2NC41NTQ2OSwtNjEuOTE5OTIgQyAyNjIuNjA4MzcsOTguNTMzOTEgMjI3LjYyOTI5LDg2LjI1IDE4OS45NDMzNiw4Ni4yNSBaIG0gMTM4Ljg4ODY3LDcwLjE2MjExIC02My40Mjc3Myw2MC44MzU5NCBjIDYuODc2MzgsMTIuNDI2NzggMTAuNzg5MDYsMjYuNzg4MTUgMTAuNzg5MDYsNDIuMTg3NSAwLDIxLjc2NzEyIC03LjgwNDE1LDQxLjQ2NTQgLTIwLjc4NTE2LDU2LjUzMzIgbCAzNC41MjM0NCw4NC41MTk1MyBjIDQ0LjE3Mzg3LC0zMS40ODc1MSA3My4xOTE0MSwtODMuMDc4OTIgNzMuMTkxNDEsLTE0MS4wNTI3MyAwLC0zOC40ODM1NSAtMTIuNzgyLC03NC4xNjUzMiAtMzQuMjkxMDIsLTEwMy4wMjM0NCB6IiB0cmFuc2Zvcm09InNjYWxlKDAuMjY0NTgzMzMpIiBzdHlsZT0iY29sb3I6IzAwMDAwMDtvcGFjaXR5OjE7ZmlsbDojNmY5OGY0O2ZpbGwtb3BhY2l0eToxO3N0cm9rZS13aWR0aDozLjc3OTUzO3N0cm9rZS1saW5lam9pbjpyb3VuZDstaW5rc2NhcGUtc3Ryb2tlOm5vbmUiIGlkPSJwYXRoOTE3OTgiLz4mI3hhOyAgICA8cGF0aCBpZD0icGF0aDg5OTI4IiB0cmFuc2Zvcm09InNjYWxlKDAuMjY0NTgzMzMpIiBkPSJtIDQwNi4xMzY3MiwtNTkuMjMyNDIyIGMgLTU4LjgxNTQ3LDhlLTYgLTEwNy4xMDM1Miw0OC4yODgwNDUgLTEwNy4xMDM1MiwxMDcuMTAzNTE2IDAsMTguNDk0NDUxIDQuNzgxMDEsMzUuOTQ1MDE3IDEzLjE1NjI1LDUxLjE4MzU5NCBsIDQ0LjMxMjUsLTQyLjUwMzkwNyBjIC0wLjQ3NTY3LC0yLjgyMDc3NSAtMC43NzUzOSwtNS43MDc1NjQgLTAuNzc1MzksLTguNjc5Njg3IDAsLTI4LjE3NjM4IDIyLjIzMzc4LC01MC40MTAxNTI1IDUwLjQxMDE2LC01MC40MTAxNTY1IDI4LjE3NjM4LC00ZS02IDUwLjQxMDE1LDIyLjIzMzc3MDUgNTAuNDEwMTYsNTAuNDEwMTU2NSAwLDI4LjE3NjM4MSAtMjIuMjMzNzgsNTAuNDEyMTEzIC01MC40MTAxNiw1MC40MTIxMDkgLTUuMDY4NjksLTEwZS03IC05LjkzNDE3LC0wLjc0NTYzMSAtMTQuNTIzNDQsLTIuMDg5ODQ0IGwgLTQzLjM2MTMzLDQxLjU5MTgwMSBjIDE2LjczMjIzLDEwLjg0Nzk1IDM2LjYxMTIzLDE3LjE4OTQ1IDU3Ljg4NDc3LDE3LjE4OTQ1IDU4LjgxNTQ5LDEwZS02IDEwNy4xMDM1MSwtNDguMjg4MDQgMTA3LjEwMzUxLC0xMDcuMTAzNTE2IDAsLTU4LjgxNTQ4MyAtNDguMjg4MDIsLTEwNy4xMDM1MjMgLTEwNy4xMDM1MSwtMTA3LjEwMzUxNiB6IiBzdHlsZT0iY29sb3I6IzAwMDAwMDtvcGFjaXR5OjE7ZmlsbDojZDZlM2ZiO2ZpbGwtb3BhY2l0eToxO3N0cm9rZS13aWR0aDozLjc3OTUzO3N0cm9rZS1saW5lam9pbjpyb3VuZDstaW5rc2NhcGUtc3Ryb2tlOm5vbmUiLz4mI3hhOyAgPC9nPiYjeGE7PC9zdmc+;" vertex="1" parent="6CXvMUmgUl0GH5pIVxYf-12">
          <mxGeometry x="92.5" y="200" width="26" height="42" as="geometry" />
        </mxCell>
        <mxCell id="6CXvMUmgUl0GH5pIVxYf-17" value="&lt;b&gt;&lt;font style=&quot;font-size: 21px;&quot;&gt;MONITOREO&lt;/font&gt;&lt;/b&gt;" style="rounded=0;whiteSpace=wrap;html=1;" parent="1" vertex="1">
          <mxGeometry x="40" y="660" width="920" height="30" as="geometry" />
        </mxCell>
        <mxCell id="_HBnlnBu-HId2oQmjhPo-6" style="edgeStyle=orthogonalEdgeStyle;rounded=0;orthogonalLoop=1;jettySize=auto;html=1;exitX=1;exitY=0.5;exitDx=0;exitDy=0;exitPerimeter=0;" edge="1" parent="1" source="_HBnlnBu-HId2oQmjhPo-3" target="_HBnlnBu-HId2oQmjhPo-7">
          <mxGeometry relative="1" as="geometry">
            <mxPoint x="170" y="240" as="targetPoint" />
          </mxGeometry>
        </mxCell>
        <mxCell id="_HBnlnBu-HId2oQmjhPo-8" style="edgeStyle=orthogonalEdgeStyle;rounded=0;orthogonalLoop=1;jettySize=auto;html=1;entryX=0;entryY=0.5;entryDx=0;entryDy=0;" edge="1" parent="1" source="_HBnlnBu-HId2oQmjhPo-4" target="_HBnlnBu-HId2oQmjhPo-1">
          <mxGeometry relative="1" as="geometry" />
        </mxCell>
        <mxCell id="_HBnlnBu-HId2oQmjhPo-11" style="edgeStyle=orthogonalEdgeStyle;rounded=0;orthogonalLoop=1;jettySize=auto;html=1;entryX=0;entryY=0.75;entryDx=0;entryDy=0;" edge="1" parent="1" source="_HBnlnBu-HId2oQmjhPo-7" target="_HBnlnBu-HId2oQmjhPo-9">
          <mxGeometry relative="1" as="geometry" />
        </mxCell>
        <mxCell id="_HBnlnBu-HId2oQmjhPo-12" style="edgeStyle=orthogonalEdgeStyle;rounded=0;orthogonalLoop=1;jettySize=auto;html=1;" edge="1" parent="1" source="_HBnlnBu-HId2oQmjhPo-1" target="_HBnlnBu-HId2oQmjhPo-10">
          <mxGeometry relative="1" as="geometry" />
        </mxCell>
        <mxCell id="_HBnlnBu-HId2oQmjhPo-16" style="edgeStyle=orthogonalEdgeStyle;rounded=0;orthogonalLoop=1;jettySize=auto;html=1;entryX=0;entryY=0.5;entryDx=0;entryDy=0;" edge="1" parent="1" source="_HBnlnBu-HId2oQmjhPo-9" target="_HBnlnBu-HId2oQmjhPo-15">
          <mxGeometry relative="1" as="geometry" />
        </mxCell>
      </root>
    </mxGraphModel>
  </diagram>
</mxfile>
